<?xml version="1.0" encoding="utf-8"?>
<!-- Generator: Adobe Illustrator 26.0.2, SVG Export Plug-In . SVG Version: 6.00 Build 0)  -->
<svg version="1.1" id="Layer_1" xmlns="http://www.w3.org/2000/svg" xmlns:xlink="http://www.w3.org/1999/xlink" x="0px" y="0px"
	 viewBox="0 0 501 501" style="enable-background:new 0 0 501 501;" xml:space="preserve">
<style type="text/css">
	.st0{fill:#E8F5F4;}
	.st1{fill-rule:evenodd;clip-rule:evenodd;fill:url(#path-2_00000019653179737843485250000008037590594439129990_);}
	.st2{filter:url(#Adobe_OpacityMaskFilter);}
	.st3{fill-rule:evenodd;clip-rule:evenodd;fill:#FFFFFF;}
	
		.st4{mask:url(#mask-3_00000006700671551610754670000016805122625521471637_);fill-rule:evenodd;clip-rule:evenodd;fill:url(#Path-2_00000010284744334722054510000004671859860685268641_);}
	.st5{filter:url(#Adobe_OpacityMaskFilter_00000050630215819508791810000009226007598200233618_);}
	
		.st6{mask:url(#mask-3_00000054977946648194809120000005369326784000622503_);fill-rule:evenodd;clip-rule:evenodd;fill:url(#Path-2-Copy_00000140706573542619511580000003972017346414276247_);}
	.st7{filter:url(#Adobe_OpacityMaskFilter_00000023961735019894531520000006951890599440054931_);}
	
		.st8{mask:url(#mask-3_00000034091233798910912450000010925367828907179433_);fill-rule:evenodd;clip-rule:evenodd;fill:url(#Path-6_00000096059264076714643990000011725066503288321966_);}
	.st9{filter:url(#Adobe_OpacityMaskFilter_00000077283764742645359350000000828095067384766092_);}
	
		.st10{mask:url(#mask-3_00000057827579024876697730000009606206247352981904_);fill-rule:evenodd;clip-rule:evenodd;fill:url(#Path-5_00000072250300292007000290000002539091620114218934_);}
	.st11{filter:url(#Adobe_OpacityMaskFilter_00000054263845045842156230000005358788874898097082_);}
	.st12{mask:url(#mask-3_00000083080121557504087960000000943494999531238796_);}
	
		.st13{fill:none;stroke:url(#Path-3_00000069380512358580576470000001691085399929748659_);stroke-width:5.2221;stroke-linecap:round;stroke-linejoin:round;}
	
		.st14{fill:none;stroke:url(#Path-4_00000124141017221567102210000018008918853280699301_);stroke-width:5.2221;stroke-linecap:round;stroke-linejoin:round;}
	.st15{filter:url(#Adobe_OpacityMaskFilter_00000027597492675932685360000013598178862746238893_);}
	
		.st16{mask:url(#mask-3_00000150801413390679085560000000803991903349550469_);fill-rule:evenodd;clip-rule:evenodd;fill:url(#Path_00000014609792368226456610000015203425429112892553_);}
	.st17{filter:url(#Adobe_OpacityMaskFilter_00000088106942388589660330000018188221584856947391_);}
	
		.st18{mask:url(#mask-3_00000147942297331652821250000005077211252160720816_);fill-rule:evenodd;clip-rule:evenodd;fill:url(#Path-7_00000056426139052491699950000000384273941147346600_);}
</style>
<rect y="0.6" class="st0" width="501" height="501"/>
<g id="Logo">
	<g transform="translate(19.000000, 46.000000)">
		<g id="Mask">
			
				<linearGradient id="path-2_00000140007788913931378830000011037828466214033075_" gradientUnits="userSpaceOnUse" x1="-267.1894" y1="704.2131" x2="-266.7408" y2="703.8069" gradientTransform="matrix(463 0 0 -410 123835 288801)">
				<stop  offset="0" style="stop-color:#64C5FB"/>
				<stop  offset="1" style="stop-color:#0040F2"/>
			</linearGradient>
			
				<path id="path-2_00000043433819123056776900000000798547726573081267_" style="fill-rule:evenodd;clip-rule:evenodd;fill:url(#path-2_00000140007788913931378830000011037828466214033075_);" d="
				M228.9,350.9c-33.6,0-172.4-168.4-172.4-193s28.2-86.3,54.8-103.1s198.6-16.8,239.8,0s54.8,78.6,54,103.1
				S262.5,350.9,228.9,350.9z"/>
		</g>
		<defs>
			<filter id="Adobe_OpacityMaskFilter" filterUnits="userSpaceOnUse" x="165.5" y="192" width="130.5" height="168.7">
				<feColorMatrix  type="matrix" values="1 0 0 0 0  0 1 0 0 0  0 0 1 0 0  0 0 0 1 0"/>
			</filter>
		</defs>
		
			<mask maskUnits="userSpaceOnUse" x="165.5" y="192" width="130.5" height="168.7" id="mask-3_00000006700671551610754670000016805122625521471637_">
			<g class="st2">
				<path id="path-2_00000145044152522386592840000016686902193325568416_" class="st3" d="M228.9,350.9
					c-33.6,0-172.4-168.4-172.4-193s28.2-86.3,54.8-103.1s198.6-16.8,239.8,0s54.8,78.6,54,103.1S262.5,350.9,228.9,350.9z"/>
			</g>
		</mask>
		
			<linearGradient id="Path-2_00000173128195495583126430000001841070314711932557_" gradientUnits="userSpaceOnUse" x1="-266.2494" y1="703.7278" x2="-265.9753" y2="703.589" gradientTransform="matrix(173.3583 0 0 -224.0358 46355.8672 157895.1562)">
			<stop  offset="0" style="stop-color:#1E9CFF;stop-opacity:0.4266"/>
			<stop  offset="1" style="stop-color:#023DE0"/>
		</linearGradient>
		
			<polygon id="Path-2" style="mask:url(#mask-3_00000006700671551610754670000016805122625521471637_);fill-rule:evenodd;clip-rule:evenodd;fill:url(#Path-2_00000173128195495583126430000001841070314711932557_);" points="
			165.5,193 229.2,360.7 296,192 225.8,196.8 		"/>
		<defs>
			
				<filter id="Adobe_OpacityMaskFilter_00000181089710624805872270000003060166130061728131_" filterUnits="userSpaceOnUse" x="231.1" y="52.8" width="178" height="139.2">
				<feColorMatrix  type="matrix" values="1 0 0 0 0  0 1 0 0 0  0 0 1 0 0  0 0 0 1 0"/>
			</filter>
		</defs>
		
			<mask maskUnits="userSpaceOnUse" x="231.1" y="52.8" width="178" height="139.2" id="mask-3_00000054977946648194809120000005369326784000622503_">
			<g style="filter:url(#Adobe_OpacityMaskFilter_00000181089710624805872270000003060166130061728131_);">
				<path id="path-2_00000042001260765489338640000015262860379293363371_" class="st3" d="M228.9,350.9
					c-33.6,0-172.4-168.4-172.4-193s28.2-86.3,54.8-103.1s198.6-16.8,239.8,0s54.8,78.6,54,103.1S262.5,350.9,228.9,350.9z"/>
			</g>
		</mask>
		
			<linearGradient id="Path-2-Copy_00000028327280284497933320000001853507260558893224_" gradientUnits="userSpaceOnUse" x1="-266.7455" y1="703.1201" x2="-266.41" y2="703.0256" gradientTransform="matrix(236.3719 0 0 -184.9082 63330.6992 130125.3125)">
			<stop  offset="0" style="stop-color:#1E9CFF;stop-opacity:0.4266"/>
			<stop  offset="1" style="stop-color:#023DE0"/>
		</linearGradient>
		
			<polygon id="Path-2-Copy" style="mask:url(#mask-3_00000054977946648194809120000005369326784000622503_);fill-rule:evenodd;clip-rule:evenodd;fill:url(#Path-2-Copy_00000028327280284497933320000001853507260558893224_);" points="
			352,52.8 409.1,74.3 405.4,159.5 296,192 231.1,70.6 		"/>
		<defs>
			
				<filter id="Adobe_OpacityMaskFilter_00000020394934334564803530000017161295715031750028_" filterUnits="userSpaceOnUse" x="227.5" y="150.6" width="188.7" height="208.9">
				<feColorMatrix  type="matrix" values="1 0 0 0 0  0 1 0 0 0  0 0 1 0 0  0 0 0 1 0"/>
			</filter>
		</defs>
		
			<mask maskUnits="userSpaceOnUse" x="227.5" y="150.6" width="188.7" height="208.9" id="mask-3_00000034091233798910912450000010925367828907179433_">
			<g style="filter:url(#Adobe_OpacityMaskFilter_00000020394934334564803530000017161295715031750028_);">
				<path id="path-2_00000101813583137404530550000006445393353093760129_" class="st3" d="M228.9,350.9
					c-33.6,0-172.4-168.4-172.4-193s28.2-86.3,54.8-103.1s198.6-16.8,239.8,0s54.8,78.6,54,103.1S262.5,350.9,228.9,350.9z"/>
			</g>
		</mask>
		
			<linearGradient id="Path-6_00000170273284170563374220000017089230745408917945_" gradientUnits="userSpaceOnUse" x1="-267.0467" y1="703.9384" x2="-266.5944" y2="703.6824" gradientTransform="matrix(250.6022 0 0 -277.4072 67139.6094 195467.0312)">
			<stop  offset="0" style="stop-color:#0432D1;stop-opacity:0"/>
			<stop  offset="1" style="stop-color:#000000;stop-opacity:0.3287"/>
		</linearGradient>
		
			<path id="Path-6" style="mask:url(#mask-3_00000034091233798910912450000010925367828907179433_);fill-rule:evenodd;clip-rule:evenodd;fill:url(#Path-6_00000170273284170563374220000017089230745408917945_);" d="
			M295,189.7l-67.5,169.8c38.4-14.7,74.7-42,108.9-81.9s60.8-82.3,79.8-126.9c-22.2,10.8-43.1,19.2-62.8,25.3
			C333.7,182,314.2,186.6,295,189.7z"/>
		<defs>
			
				<filter id="Adobe_OpacityMaskFilter_00000070820532160156534800000002710958931091193765_" filterUnits="userSpaceOnUse" x="166.9" y="68.2" width="127.7" height="128.4">
				<feColorMatrix  type="matrix" values="1 0 0 0 0  0 1 0 0 0  0 0 1 0 0  0 0 0 1 0"/>
			</filter>
		</defs>
		
			<mask maskUnits="userSpaceOnUse" x="166.9" y="68.2" width="127.7" height="128.4" id="mask-3_00000057827579024876697730000009606206247352981904_">
			<g style="filter:url(#Adobe_OpacityMaskFilter_00000070820532160156534800000002710958931091193765_);">
				<path id="path-2_00000049201837664599499730000008215274074855744905_" class="st3" d="M228.9,350.9
					c-33.6,0-172.4-168.4-172.4-193s28.2-86.3,54.8-103.1s198.6-16.8,239.8,0s54.8,78.6,54,103.1S262.5,350.9,228.9,350.9z"/>
			</g>
		</mask>
		
			<linearGradient id="Path-5_00000122712218123543122060000003905870437112278405_" gradientUnits="userSpaceOnUse" x1="-266.0366" y1="702.6469" x2="-266.0366" y2="703.3425" gradientTransform="matrix(169.6233 0 0 -170.5672 45356.7891 120035.3906)">
			<stop  offset="0" style="stop-color:#CBE9FD;stop-opacity:0.5455"/>
			<stop  offset="1" style="stop-color:#9CCFFB;stop-opacity:9.790210e-02"/>
		</linearGradient>
		
			<path id="Path-5" style="mask:url(#mask-3_00000057827579024876697730000009606206247352981904_);fill-rule:evenodd;clip-rule:evenodd;fill:url(#Path-5_00000122712218123543122060000003905870437112278405_);" d="
			M229.3,68.2l-62.4,124.4c19.7,2.7,40.5,4,62.2,4s43.6-2,65.5-6L229.3,68.2z"/>
		<defs>
			
				<filter id="Adobe_OpacityMaskFilter_00000007406885542100883690000012846608024268610235_" filterUnits="userSpaceOnUse" x="44.2" y="52.2" width="374.2" height="311.1">
				<feColorMatrix  type="matrix" values="1 0 0 0 0  0 1 0 0 0  0 0 1 0 0  0 0 0 1 0"/>
			</filter>
		</defs>
		
			<mask maskUnits="userSpaceOnUse" x="44.2" y="52.2" width="374.2" height="311.1" id="mask-3_00000083080121557504087960000000943494999531238796_">
			<g style="filter:url(#Adobe_OpacityMaskFilter_00000007406885542100883690000012846608024268610235_);">
				<path id="path-2_00000136370312429978764870000016837958717802734777_" class="st3" d="M228.9,350.9
					c-33.6,0-172.4-168.4-172.4-193s28.2-86.3,54.8-103.1s198.6-16.8,239.8,0s54.8,78.6,54,103.1S262.5,350.9,228.9,350.9z"/>
			</g>
		</mask>
		<g id="lines" class="st12">
			<g transform="translate(-12.814219, 16.731841)">
				
					<linearGradient id="Path-3_00000172435303060831181220000000222358281783343506_" gradientUnits="userSpaceOnUse" x1="-254.6316" y1="683.5586" x2="-253.7324" y2="683.5586" gradientTransform="matrix(490.1304 0 0 -58.8788 124825.3203 40404.8867)">
					<stop  offset="0" style="stop-color:#ABD9FD"/>
					<stop  offset="0.5086" style="stop-color:#9CCFFB"/>
					<stop  offset="1" style="stop-color:#0545EB"/>
				</linearGradient>
				
					<path id="Path-3" style="fill:none;stroke:url(#Path-3_00000172435303060831181220000000222358281783343506_);stroke-width:5.2221;stroke-linecap:round;stroke-linejoin:round;" d="
					M59.6,135.6c52.5,30.7,113.3,45.4,182.4,44.3s131.3-15.9,186.7-44.3"/>
				
					<radialGradient id="Path-4_00000152977653219312973080000011397245603787542455_" cx="-253.9339" cy="689.2379" r="0.8728" gradientTransform="matrix(1.950544e-14 318.5482 185.386 -1.135163e-14 -127531.1172 81030.4688)" gradientUnits="userSpaceOnUse">
					<stop  offset="0" style="stop-color:#9CCFFB"/>
					<stop  offset="1" style="stop-color:#9DD0FB;stop-opacity:0.1538"/>
				</radialGradient>
				
					<path id="Path-4" style="fill:none;stroke:url(#Path-4_00000152977653219312973080000011397245603787542455_);stroke-width:5.2221;stroke-linecap:round;stroke-linejoin:round;" d="
					M124,38.1L242,344L363.9,38.1c-41.9,9.4-82.6,14-121.9,14S163.3,47.5,124,38.1z"/>
			</g>
		</g>
		<defs>
			
				<filter id="Adobe_OpacityMaskFilter_00000046308668104970147070000001709183516477939602_" filterUnits="userSpaceOnUse" x="47.1" y="151.2" width="183.4" height="208.3">
				<feColorMatrix  type="matrix" values="1 0 0 0 0  0 1 0 0 0  0 0 1 0 0  0 0 0 1 0"/>
			</filter>
		</defs>
		
			<mask maskUnits="userSpaceOnUse" x="47.1" y="151.2" width="183.4" height="208.3" id="mask-3_00000150801413390679085560000000803991903349550469_">
			<g style="filter:url(#Adobe_OpacityMaskFilter_00000046308668104970147070000001709183516477939602_);">
				<path id="path-2_00000028307583606652473340000000668030041508378245_" class="st3" d="M228.9,350.9
					c-33.6,0-172.4-168.4-172.4-193s28.2-86.3,54.8-103.1s198.6-16.8,239.8,0s54.8,78.6,54,103.1S262.5,350.9,228.9,350.9z"/>
			</g>
		</mask>
		
			<linearGradient id="Path_00000038374811255454759200000017936820528854118818_" gradientUnits="userSpaceOnUse" x1="-266.247" y1="703.9644" x2="-266.4351" y2="703.5137" gradientTransform="matrix(243.6512 0 0 -276.6762 65037.1133 194952.4062)">
			<stop  offset="0" style="stop-color:#CBE9FD"/>
			<stop  offset="1" style="stop-color:#9CCFFB;stop-opacity:9.790210e-02"/>
		</linearGradient>
		
			<path id="Path" style="mask:url(#mask-3_00000150801413390679085560000000803991903349550469_);fill-rule:evenodd;clip-rule:evenodd;fill:url(#Path_00000038374811255454759200000017936820528854118818_);" d="
			M165.8,190.8c-16.3-1.8-35-6.1-55.9-12.9c-21-6.8-41.9-15.7-62.8-26.7c22.2,45.4,47.3,84.3,75,116.4s63.9,62.8,108.4,91.9
			L165.8,190.8z"/>
		<defs>
			
				<filter id="Adobe_OpacityMaskFilter_00000011751219727929956720000002164417516490386364_" filterUnits="userSpaceOnUse" x="107.8" y="42.2" width="247.1" height="28.6">
				<feColorMatrix  type="matrix" values="1 0 0 0 0  0 1 0 0 0  0 0 1 0 0  0 0 0 1 0"/>
			</filter>
		</defs>
		
			<mask maskUnits="userSpaceOnUse" x="107.8" y="42.2" width="247.1" height="28.6" id="mask-3_00000147942297331652821250000005077211252160720816_">
			<g style="filter:url(#Adobe_OpacityMaskFilter_00000011751219727929956720000002164417516490386364_);">
				<path id="path-2_00000174595617588189857580000008301348064628907695_" class="st3" d="M228.9,350.9
					c-33.6,0-172.4-168.4-172.4-193s28.2-86.3,54.8-103.1s198.6-16.8,239.8,0s54.8,78.6,54,103.1S262.5,350.9,228.9,350.9z"/>
			</g>
		</mask>
		
			<linearGradient id="Path-7_00000162312543403812105210000016393384414025789090_" gradientUnits="userSpaceOnUse" x1="-266.7443" y1="696.5709" x2="-266.7443" y2="698.3883" gradientTransform="matrix(328.229 0 0 -37.9451 87784.5469 26502.2051)">
			<stop  offset="0" style="stop-color:#CBE9FD;stop-opacity:0.4615"/>
			<stop  offset="1" style="stop-color:#156CF0;stop-opacity:0"/>
		</linearGradient>
		
			<path id="Path-7" style="mask:url(#mask-3_00000147942297331652821250000005077211252160720816_);fill-rule:evenodd;clip-rule:evenodd;fill:url(#Path-7_00000162312543403812105210000016393384414025789090_);" d="
			M230.6,42.3c-57.5-0.5-122.4,1.8-122.8,9.2c-0.4,7.3,63,18.8,121.1,19.3c58.1,0.5,125.6-11.3,126-17.7
			C355.2,46.6,288.1,42.7,230.6,42.3z"/>
	</g>
</g>
</svg>
